<?xml version="1.0" encoding="UTF-8" standalone="no"?>
<svg
   id="Capa_1"
   data-name="Capa 1"
   viewBox="0 0 350.11 60.59"
   version="1.1"
   sodipodi:docname="e5c9c3d54fbbb9e94b4c0329c069f98e.svg"
   xmlns:inkscape="http://www.inkscape.org/namespaces/inkscape"
   xmlns:sodipodi="http://sodipodi.sourceforge.net/DTD/sodipodi-0.dtd"
   xmlns="http://www.w3.org/2000/svg"
   xmlns:svg="http://www.w3.org/2000/svg">
  <sodipodi:namedview
     id="namedview73"
     pagecolor="#ffffff"
     bordercolor="#666666"
     borderopacity="1.0"
     inkscape:pageshadow="2"
     inkscape:pageopacity="0.0"
     inkscape:pagecheckerboard="0" />
  <defs
     id="defs4">
    <style
       id="style2">.cls-1{fill:#e6332c;}.cls-2{fill:#2f3433;}.cls-3{fill:#738087;}</style>
  </defs>
  <path
     class="cls-1"
     d="M31.44,45.51A160.24,160.24,0,0,0,21.32,67.07,29.21,29.21,0,0,1,5.89,50.81l1.18-3.12a158.4,158.4,0,0,1,8.56-18.11A156.41,156.41,0,0,1,31.44,45.51"
     transform="translate(-5.89 -6.48)"
     id="path6" />
  <path
     class="cls-1"
     d="M47.19,22.45a162.24,162.24,0,0,0-13,18.31A160.38,160.38,0,0,0,18.27,25,157.89,157.89,0,0,1,31.21,6.48a157.46,157.46,0,0,1,16,16"
     transform="translate(-5.89 -6.48)"
     id="path8" />
  <path
     class="cls-1"
     d="M63.39,45A162.26,162.26,0,0,0,50.58,63a162.5,162.5,0,0,0-12.8-18,155.15,155.15,0,0,1,12.8-18.44A154.43,154.43,0,0,1,63.39,45"
     transform="translate(-5.89 -6.48)"
     id="path10" />
  <path
     class="cls-1"
     d="M82.9,25A162.62,162.62,0,0,0,67,40.76,164,164,0,0,0,54,22.45a158.29,158.29,0,0,1,16-16A159.85,159.85,0,0,1,82.9,25"
     transform="translate(-5.89 -6.48)"
     id="path12" />
  <path
     class="cls-1"
     d="M95.28,50.8A29.14,29.14,0,0,1,79.86,67.07,163.14,163.14,0,0,0,69.73,45.5,159.66,159.66,0,0,1,85.55,29.57a155.77,155.77,0,0,1,8.53,18.09Z"
     transform="translate(-5.89 -6.48)"
     id="path14" />
  <path
     class="cls-2"
     d="M317,32.82c0,3.12-2.48,4.93-6,4.93s-6-1.81-6-4.93V22.63c0-3.13,2.48-4.94,6-4.94s6,1.81,6,4.94Zm-6-21.94c-6.4,0-14.37,3.34-14.37,11.07V33.49c0,7.74,8,11.07,14.37,11.07s14.48-3.33,14.48-11.07V22c0-7.73-8.08-11.07-14.48-11.07"
     transform="translate(-5.89 -6.48)"
     id="path16" />
  <path
     class="cls-2"
     d="M140.64,12h-5a2.35,2.35,0,0,0-2.36,1.62L126,25.34l-7.19-11.76c-.43-.57-.64-1.62-2.42-1.62h-5.2c-1.22,0-1.53.53-1.53,1.38V42.05c0,1.1.58,1.38,1.53,1.38h5.2c.94,0,1.51-.28,1.51-1.38V25.86l5.32,8.36a1.81,1.81,0,0,0,1.47,1h2.62a1.93,1.93,0,0,0,1.53-1l5.25-8.36V42.05c0,1.1.57,1.38,1.52,1.38h5c.94,0,1.52-.28,1.52-1.38V13.34c0-.85-.31-1.38-1.52-1.38"
     transform="translate(-5.89 -6.48)"
     id="path18" />
  <path
     class="cls-2"
     d="M156.29,31.54,160.23,21l3.94,10.55ZM176.52,42.1,164.9,13.49A2.11,2.11,0,0,0,162.75,12h-5a2.08,2.08,0,0,0-2.16,1.49L143.89,42.1c-.27.58-.27,1.33.89,1.33h5.52c1.16,0,1.58-.28,2-1.43l1.47-3.76h12.87L168.11,42c.42,1.15.84,1.43,2,1.43h5.51c1.15,0,1.15-.75.9-1.33"
     transform="translate(-5.89 -6.48)"
     id="path20" />
  <path
     class="cls-2"
     d="M206.34,41.9l-7.41-9.78c3.25-1,7.3-4.49,7.3-9.51a9.87,9.87,0,0,0-3-7.5c-2.2-2-4.72-3-10.44-3H179.5c-1.21,0-1.47.52-1.47,1.38V42.05c0,1.1.51,1.38,1.47,1.38h5.19c.95,0,1.53-.28,1.53-1.38V18.74h7c2.73,0,4.83,1.58,4.83,4.06,0,2.25-2.42,3.87-5,3.87H192c-1.21,0-1.53.53-1.53,1.38v3.83a3.32,3.32,0,0,0,.58,2.44L196.73,42a2.83,2.83,0,0,0,2.62,1.43h6.2a.91.91,0,0,0,.79-1.53"
     transform="translate(-5.89 -6.48)"
     id="path22" />
  <path
     class="cls-2"
     d="M220.91,31.54,224.85,21l3.94,10.55ZM241.13,42.1,229.52,13.49A2.11,2.11,0,0,0,227.37,12h-5a2.08,2.08,0,0,0-2.16,1.49L208.51,42.1c-.27.58-.27,1.33.89,1.33h5.52c1.15,0,1.57-.28,2-1.43l1.47-3.76h12.87L232.73,42c.41,1.15.84,1.43,2,1.43h5.51c1.16,0,1.16-.75.9-1.33"
     transform="translate(-5.89 -6.48)"
     id="path24" />
  <path
     class="cls-2"
     d="M261.94,12H237.57c-1.22,0-1.53.54-1.53,1.39v4c0,.86.31,1.38,1.53,1.38h8.08V42.05c0,1.1.59,1.38,1.53,1.38h5.2c1,0,1.53-.28,1.53-1.38V18.74h8c1.22,0,1.53-.52,1.53-1.38v-4c0-.85-.31-1.39-1.53-1.39"
     transform="translate(-5.89 -6.48)"
     id="path26" />
  <path
     class="cls-2"
     d="M292.41,12h-5.2c-.95,0-1.51.29-1.51,1.39v10.8H274V13.39c0-1.1-.53-1.39-1.52-1.39h-5.2c-.94,0-1.53.29-1.53,1.39V42.05c0,1.1.59,1.38,1.53,1.38h5.2c1,0,1.52-.28,1.52-1.38V31.26H285.7V42.05c0,1.1.56,1.38,1.51,1.38h5.2c.95,0,1.53-.28,1.53-1.38V13.39c0-1.1-.58-1.39-1.53-1.39"
     transform="translate(-5.89 -6.48)"
     id="path28" />
  <path
     class="cls-2"
     d="M354.25,12h-5c-.95,0-1.52.29-1.52,1.39V30L336.55,13.63c-.68-1-1.05-1.63-2.37-1.63h-4.94c-1.2,0-1.52.54-1.52,1.39V42.05c0,1.1.58,1.38,1.52,1.38h5.21c.94,0,1.52-.28,1.52-1.38V25.43l11.14,16.38c.67.95,1.05,1.62,2.36,1.62h4.78c1.21,0,1.53-.52,1.53-1.38V13.39c0-1.1-.57-1.39-1.53-1.39"
     transform="translate(-5.89 -6.48)"
     id="path30" />
  <path
     class="cls-3"
     d="M116.35,57.66a2.4,2.4,0,0,1-.66,1.8,2.56,2.56,0,0,1-1.87.65,2.25,2.25,0,0,1-1.92-1,4,4,0,0,1-.73-2.44V54.78a3.94,3.94,0,0,1,.73-2.43,2.26,2.26,0,0,1,1.92-1,2.56,2.56,0,0,1,1.87.65,2.39,2.39,0,0,1,.66,1.77h1.39v0a3.24,3.24,0,0,0-1-2.56,4.19,4.19,0,0,0-2.89-1,3.76,3.76,0,0,0-2.95,1.3,4.75,4.75,0,0,0-1.14,3.26v1.9A4.74,4.74,0,0,0,110.87,60a3.77,3.77,0,0,0,2.95,1.27,4,4,0,0,0,2.87-1,3.21,3.21,0,0,0,1.06-2.52v0Z"
     transform="translate(-5.89 -6.48)"
     id="path32" />
  <path
     class="cls-3"
     d="M129.33,56.7a3.66,3.66,0,0,1-.78,2.42,2.67,2.67,0,0,1-2.14.94,2.46,2.46,0,0,1-2-.94,3.78,3.78,0,0,1-.75-2.42V54.78a3.8,3.8,0,0,1,.75-2.42,2.45,2.45,0,0,1,2-.93,2.66,2.66,0,0,1,2.13.93,3.65,3.65,0,0,1,.79,2.42Zm.24-5.16a4.17,4.17,0,0,0-3.16-1.31,3.94,3.94,0,0,0-3,1.31,4.71,4.71,0,0,0-1.18,3.25V56.7a4.65,4.65,0,0,0,1.18,3.24,3.89,3.89,0,0,0,3,1.29,4.12,4.12,0,0,0,3.16-1.29,4.58,4.58,0,0,0,1.21-3.24V54.79a4.6,4.6,0,0,0-1.21-3.25"
     transform="translate(-5.89 -6.48)"
     id="path34" />
  <polygon
     class="cls-3"
     points="136.6 43.91 136.6 52.06 136.55 52.08 131.41 43.91 129.97 43.91 129.97 54.61 131.41 54.61 131.41 46.47 131.46 46.44 136.6 54.61 138.04 54.61 138.04 43.91 136.6 43.91"
     id="polygon36" />
  <polygon
     class="cls-3"
     points="144.98 53.48 144.98 49.65 149.37 49.65 149.37 48.51 144.98 48.51 144.98 45.05 150.04 45.05 150.04 43.91 143.53 43.91 143.53 54.61 150.12 54.61 150.12 53.48 144.98 53.48"
     id="polygon38" />
  <path
     class="cls-3"
     d="M167,57.66a2.37,2.37,0,0,1-.67,1.8,2.55,2.55,0,0,1-1.86.65,2.29,2.29,0,0,1-1.93-1,4,4,0,0,1-.71-2.44V54.78a4,4,0,0,1,.71-2.43,2.31,2.31,0,0,1,1.93-1,2.55,2.55,0,0,1,1.86.65A2.36,2.36,0,0,1,167,53.8h1.38l0,0a3.18,3.18,0,0,0-1.05-2.56,4.13,4.13,0,0,0-2.88-1,3.77,3.77,0,0,0-3,1.3,4.75,4.75,0,0,0-1.15,3.26v1.9A4.74,4.74,0,0,0,161.48,60a3.78,3.78,0,0,0,3,1.27,4,4,0,0,0,2.87-1,3.18,3.18,0,0,0,1.06-2.52l0,0Z"
     transform="translate(-5.89 -6.48)"
     id="path40" />
  <polygon
     class="cls-3"
     points="166.16 43.91 166.16 45.05 169.63 45.05 169.63 54.61 171.07 54.61 171.07 45.05 174.6 45.05 174.6 43.91 166.16 43.91"
     id="polygon42" />
  <path
     class="cls-3"
     d="M186.34,57.13l1.59-4.6h0l1.56,4.6Zm2.24-6.74h-1.24l-3.86,10.7H185l.95-2.76h4l1,2.76h1.46Z"
     transform="translate(-5.89 -6.48)"
     id="path44" />
  <polygon
     class="cls-3"
     points="199.78 43.91 196.38 52.6 196.32 52.6 192.92 43.91 191.03 43.91 191.03 54.61 192.47 54.61 192.47 46.32 192.51 46.32 195.85 54.61 196.85 54.61 200.09 46.6 200.14 46.6 200.14 54.61 201.57 54.61 201.57 43.91 199.78 43.91"
     id="polygon46" />
  <path
     class="cls-3"
     d="M219.68,56.7a3.66,3.66,0,0,1-.78,2.42,2.69,2.69,0,0,1-2.14.94,2.46,2.46,0,0,1-2-.94A3.72,3.72,0,0,1,214,56.7V54.78a3.74,3.74,0,0,1,.75-2.42,2.45,2.45,0,0,1,2-.93,2.66,2.66,0,0,1,2.13.93,3.65,3.65,0,0,1,.79,2.42Zm.24-5.16a4.18,4.18,0,0,0-3.16-1.31,3.92,3.92,0,0,0-3,1.31,4.7,4.7,0,0,0-1.17,3.25V56.7a4.64,4.64,0,0,0,1.17,3.24,3.88,3.88,0,0,0,3,1.29,4.13,4.13,0,0,0,3.16-1.29,4.58,4.58,0,0,0,1.21-3.24V54.79a4.6,4.6,0,0,0-1.21-3.25"
     transform="translate(-5.89 -6.48)"
     id="path48" />
  <path
     class="cls-3"
     d="M232.5,56.37A5.27,5.27,0,0,0,230,55.14a5.86,5.86,0,0,1-1.92-.83,1.39,1.39,0,0,1-.59-1.15,1.65,1.65,0,0,1,.54-1.29,2.25,2.25,0,0,1,1.56-.49,2.35,2.35,0,0,1,1.63.59,2,2,0,0,1,.62,1.51h1.39l0,0a2.94,2.94,0,0,0-1-2.23,3.71,3.71,0,0,0-2.69-1,3.8,3.8,0,0,0-2.56.85,2.67,2.67,0,0,0-1,2.09,2.55,2.55,0,0,0,.92,2,6.13,6.13,0,0,0,2.54,1.18,4.44,4.44,0,0,1,1.85.84,1.62,1.62,0,0,1,.51,1.22,1.48,1.48,0,0,1-.6,1.25,2.5,2.5,0,0,1-1.62.47,2.88,2.88,0,0,1-1.73-.55,1.81,1.81,0,0,1-.76-1.54h-1.38l0,0a2.64,2.64,0,0,0,1.15,2.31,4.47,4.47,0,0,0,2.74.86,4.22,4.22,0,0,0,2.66-.78,2.51,2.51,0,0,0,1-2.07,2.69,2.69,0,0,0-.85-2"
     transform="translate(-5.89 -6.48)"
     id="path50" />
  <rect
     class="cls-3"
     x="239.37"
     y="43.92"
     width="1.45"
     height="10.69"
     id="rect52" />
  <polygon
     class="cls-3"
     points="253.1 43.91 253.1 52.06 253.05 52.08 247.91 43.91 246.47 43.91 246.47 54.61 247.91 54.61 247.91 46.47 247.95 46.44 253.1 54.61 254.54 54.61 254.54 43.91 253.1 43.91"
     id="polygon54" />
  <path
     class="cls-3"
     d="M272.48,56.48a3.68,3.68,0,0,1-.85,2.5,3,3,0,0,1-2.33,1h-1.93V51.53h1.93a3,3,0,0,1,2.33,1,3.64,3.64,0,0,1,.85,2.49Zm.18-4.8a4.53,4.53,0,0,0-3.36-1.29h-3.37v10.7h3.37a4.39,4.39,0,0,0,4.63-4.61V55a4.53,4.53,0,0,0-1.27-3.33"
     transform="translate(-5.89 -6.48)"
     id="path56" />
  <path
     class="cls-3"
     d="M285.54,50.39v7.1a2.55,2.55,0,0,1-.74,1.93,2.71,2.71,0,0,1-1.91.69,2.51,2.51,0,0,1-1.81-.69,2.64,2.64,0,0,1-.7-1.93v-7.1h-1.45v7.1A3.49,3.49,0,0,0,280,60.24a4.06,4.06,0,0,0,2.85,1,4.28,4.28,0,0,0,2.95-1A3.45,3.45,0,0,0,287,57.49v-7.1Z"
     transform="translate(-5.89 -6.48)"
     id="path58" />
  <path
     class="cls-3"
     d="M298.56,56.37a5.27,5.27,0,0,0-2.46-1.23,5.69,5.69,0,0,1-1.91-.83,1.4,1.4,0,0,1-.6-1.15,1.65,1.65,0,0,1,.54-1.29,2.24,2.24,0,0,1,1.55-.49,2.34,2.34,0,0,1,1.64.59,2,2,0,0,1,.63,1.51h1.38l0,0a2.9,2.9,0,0,0-1-2.23,3.7,3.7,0,0,0-2.7-1,3.76,3.76,0,0,0-2.54.85,2.64,2.64,0,0,0-1,2.09,2.54,2.54,0,0,0,.91,2,6.25,6.25,0,0,0,2.54,1.18,4.44,4.44,0,0,1,1.85.84,1.62,1.62,0,0,1,.51,1.22,1.5,1.5,0,0,1-.59,1.25,2.55,2.55,0,0,1-1.63.47,2.88,2.88,0,0,1-1.73-.55,1.81,1.81,0,0,1-.76-1.54h-1.38v0A2.59,2.59,0,0,0,293,60.37a4.46,4.46,0,0,0,2.73.86,4.13,4.13,0,0,0,2.64-.78,2.47,2.47,0,0,0,1-2.07,2.65,2.65,0,0,0-.85-2"
     transform="translate(-5.89 -6.48)"
     id="path60" />
  <polygon
     class="cls-3"
     points="297.58 43.91 297.58 45.05 301.06 45.05 301.06 54.61 302.5 54.61 302.5 45.05 306.03 45.05 306.03 43.91 297.58 43.91"
     id="polygon62" />
  <path
     class="cls-3"
     d="M319.94,55.31h-2.07V51.53h2.22a2.27,2.27,0,0,1,1.63.5,1.8,1.8,0,0,1,.52,1.4,1.74,1.74,0,0,1-.54,1.42,2.69,2.69,0,0,1-1.76.46m3.83,4.95a3.94,3.94,0,0,1-.11-.89v-1a3.09,3.09,0,0,0-.38-1.59,2.22,2.22,0,0,0-1.27-.92,2.78,2.78,0,0,0,1.25-1,2.37,2.37,0,0,0,.42-1.43,2.77,2.77,0,0,0-.92-2.25,4,4,0,0,0-2.67-.79h-3.66V61.08h1.44V56.45h2.48a1.74,1.74,0,0,1,1.35.54,1.85,1.85,0,0,1,.51,1.39v1a5.47,5.47,0,0,0,.09,1,1.09,1.09,0,0,0,.37.73h1.49v-.17Z"
     transform="translate(-5.89 -6.48)"
     id="path64" />
  <rect
     class="cls-3"
     x="323.24"
     y="43.92"
     width="1.45"
     height="10.69"
     id="rect66" />
  <path
     class="cls-3"
     d="M338.28,57.13l1.59-4.6h0l1.57,4.6Zm2.24-6.74h-1.24l-3.85,10.7h1.48l.95-2.76h4l.94,2.76h1.48Z"
     transform="translate(-5.89 -6.48)"
     id="path68" />
  <path
     class="cls-3"
     d="M355.16,56.37a5.37,5.37,0,0,0-2.46-1.23,5.93,5.93,0,0,1-1.93-.83,1.41,1.41,0,0,1-.58-1.15,1.65,1.65,0,0,1,.54-1.29,2.18,2.18,0,0,1,1.54-.49,2.31,2.31,0,0,1,1.63.59,2,2,0,0,1,.64,1.51h1.38l0,0a2.87,2.87,0,0,0-1-2.23,4.21,4.21,0,0,0-5.24-.13,2.64,2.64,0,0,0-1,2.09,2.51,2.51,0,0,0,.91,2,6.24,6.24,0,0,0,2.55,1.18,4.28,4.28,0,0,1,1.83.84,1.63,1.63,0,0,1,.52,1.22,1.48,1.48,0,0,1-.6,1.25,2.53,2.53,0,0,1-1.63.47,2.87,2.87,0,0,1-1.72-.55,1.78,1.78,0,0,1-.75-1.54h-1.4v0a2.65,2.65,0,0,0,1.16,2.31,4.43,4.43,0,0,0,2.72.86,4.19,4.19,0,0,0,2.66-.78,2.46,2.46,0,0,0,1-2.07,2.72,2.72,0,0,0-.84-2"
     transform="translate(-5.89 -6.48)"
     id="path70" />
</svg>
